<svg width="34" height="34" viewBox="0 0 34 34" fill="none" xmlns="http://www.w3.org/2000/svg">
<g clip-path="url(#clip0_0_233)">
<path d="M16.9998 5.11432C24.1488 5.11432 29.9652 10.9308 29.9652 18.0797C29.9652 25.2291 24.1488 31.0455 16.9998 31.0455C9.85044 31.0455 4.03447 25.229 4.03447 18.0797C4.03447 10.9308 9.85084 5.11432 16.9998 5.11432ZM16.9998 28.6957C22.8531 28.6957 27.615 23.9334 27.615 18.0802C27.615 12.2269 22.8531 7.46496 16.9998 7.46496C11.1466 7.46496 6.38464 12.2269 6.38464 18.0802C6.38464 23.9337 11.1466 28.6957 16.9998 28.6957Z" fill="#03A66B"/>
<path d="M13.3967 17.6881H16.5303V13.1444C16.5303 12.4953 17.0563 11.9693 17.7054 11.9693C18.3544 11.9693 18.8805 12.4953 18.8805 13.1444V18.8633C18.8805 19.5123 18.3544 20.0384 17.7054 20.0384H13.3966C12.7476 20.0384 12.2215 19.5123 12.2215 18.8633C12.2216 18.2142 12.7476 17.6881 13.3967 17.6881Z" fill="#03A66B"/>
<path d="M23.6561 26.49C24.1387 26.0556 24.8818 26.0952 25.3158 26.5774L28.8411 30.4944C29.2755 30.9766 29.236 31.7196 28.7538 32.1537C28.5293 32.3562 28.2481 32.4557 27.968 32.4557C27.6464 32.4557 27.326 32.3245 27.0941 32.0664L23.5687 28.1493C23.1344 27.6671 23.174 26.924 23.6561 26.49Z" fill="#03A66B"/>
<path d="M5.15817 30.4948L8.68352 26.5777C9.11675 26.0952 9.86016 26.056 10.3428 26.4904C10.8254 26.9244 10.8642 27.6675 10.4301 28.1497L6.90477 32.0667C6.67328 32.3244 6.35287 32.4557 6.03127 32.4557C5.75157 32.4557 5.47034 32.3562 5.24549 32.154C4.76292 31.72 4.72414 30.9769 5.15817 30.4948Z" fill="#03A66B"/>
<path d="M23.8558 3.25699C26.1908 0.970631 29.9546 0.974151 32.2457 3.26562C33.3856 4.40508 34.0084 5.91276 34.0002 7.51089C33.9915 9.08983 33.3656 10.5682 32.2371 11.6735C32.0083 11.8972 31.7118 12.0088 31.4149 12.0088C31.1141 12.0088 30.8133 11.8937 30.5841 11.6649L23.8468 4.92763C23.6251 4.70557 23.5013 4.40429 23.5029 4.09058C23.5044 3.77675 23.6314 3.47673 23.8558 3.25699ZM31.286 9.04281C31.5214 8.56847 31.6472 8.0436 31.6499 7.49834C31.655 6.53319 31.2767 5.61971 30.5841 4.92717C29.8932 4.23661 28.9797 3.8915 28.0611 3.8915C27.5241 3.8915 26.9851 4.00937 26.4885 4.24518L31.286 9.04281Z" fill="#03A66B"/>
<path d="M1.75469 3.26514C4.04616 0.974064 7.81006 0.970146 10.145 3.25651C10.369 3.47624 10.4963 3.77633 10.4979 4.09003C10.4995 4.4038 10.3753 4.70542 10.1536 4.92708L3.4163 11.6644C3.18714 11.8939 2.88631 12.0087 2.5855 12.0087C2.28859 12.0087 1.99169 11.8971 1.76332 11.6726C0.63442 10.5676 0.00847816 9.08934 0.000244141 7.51034C-0.00799084 5.91268 0.615229 4.405 1.75469 3.26514ZM2.71432 9.04273L7.51189 4.24516C6.16525 3.60587 4.51107 3.83271 3.41624 4.92748C2.72369 5.62003 2.34531 6.53304 2.35042 7.49865C2.35321 8.04351 2.47891 8.56879 2.71432 9.04273Z" fill="#03A66B"/>
</g>
<defs>
<clipPath id="clip0_0_233">
<rect width="34" height="34" fill="white" transform="matrix(-1 0 0 1 34 0)"/>
</clipPath>
</defs>
</svg>
