<svg width="50" height="49" viewBox="0 0 50 49" fill="none" xmlns="http://www.w3.org/2000/svg">
<g filter="url(#filter0_d_0_220)">
<path d="M20.9623 26.8336C21.7074 26.8336 22.3114 26.2297 22.3114 25.4847C22.3114 24.7397 21.7074 24.1357 20.9623 24.1357C20.2173 24.1357 19.6133 24.7397 19.6133 25.4847C19.6133 26.2297 20.2173 26.8336 20.9623 26.8336Z" fill="white"/>
<path d="M28.5168 26.8336C29.2619 26.8336 29.8658 26.2297 29.8658 25.4847C29.8658 24.7397 29.2619 24.1357 28.5168 24.1357C27.7717 24.1357 27.1677 24.7397 27.1677 25.4847C27.1677 26.2297 27.7717 26.8336 28.5168 26.8336Z" fill="white"/>
<path d="M32.5043 10.7961H17.7563L16.5109 7.47484C16.3475 7.03737 16.0708 6.66367 15.7159 6.40111C15.3611 6.13856 14.944 5.99897 14.5177 6.00004H13C12.4477 6.00004 12 6.44775 12 7.00004V7.39809C12 7.95037 12.4477 8.39809 13 8.39809H14.5188L19.6373 22.049C19.8046 22.495 20.1985 22.7864 20.6334 22.7864H29.2668C29.7168 22.7864 30.1193 22.4759 30.278 22.0094L33.5155 12.4172C33.5761 12.2357 33.5964 12.0406 33.5747 11.8484C33.5529 11.6563 33.4897 11.4729 33.3904 11.3137C33.2911 11.1546 33.1587 11.0244 33.0044 10.9343C32.8502 10.8442 32.6786 10.7968 32.5043 10.7961ZM28.637 17.6909H26.0293V19.9391H24.1405V17.6909H21.4426V15.5922H24.1405V13.1942H26.0293V15.5922H28.637V17.6909Z" fill="white"/>
</g>
<defs>
<filter id="filter0_d_0_220" x="0" y="3.05176e-05" width="49.5831" height="48.8336" filterUnits="userSpaceOnUse" color-interpolation-filters="sRGB">
<feFlood flood-opacity="0" result="BackgroundImageFix"/>
<feColorMatrix in="SourceAlpha" type="matrix" values="0 0 0 0 0 0 0 0 0 0 0 0 0 0 0 0 0 0 127 0" result="hardAlpha"/>
<feOffset dx="2" dy="8"/>
<feGaussianBlur stdDeviation="7"/>
<feColorMatrix type="matrix" values="0 0 0 0 0.696115 0 0 0 0 0.134872 0 0 0 0 0.138098 0 0 0 0.37 0"/>
<feBlend mode="normal" in2="BackgroundImageFix" result="effect1_dropShadow_0_220"/>
<feBlend mode="normal" in="SourceGraphic" in2="effect1_dropShadow_0_220" result="shape"/>
</filter>
</defs>
</svg>
